<svg xmlns="http://www.w3.org/2000/svg" stroke="white" fill="black" viewBox="0 0 1047.14 88.97"><title>Vf Logo</title><g id="Layer_2" data-name="Layer 2"><g id="Layer_1-2" data-name="Layer 1"><polygon points="0 37.42 0 40.4 12.02 40.4 12.02 72.58 15.29 72.58 15.29 40.4 27.32 40.4 27.32 37.42 0 37.42"/><polygon points="49.62 72.59 52.9 72.59 52.9 55.9 72.56 55.9 72.56 72.59 75.84 72.59 75.84 37.42 72.56 37.42 72.56 52.92 52.9 52.92 52.9 37.42 49.62 37.42 49.62 72.59"/><polygon points="102.36 72.59 124.67 72.59 124.67 69.61 105.64 69.61 105.64 55.9 122.73 55.9 122.73 52.92 105.64 52.92 105.64 40.41 123.87 40.41 123.87 37.42 102.36 37.42 102.36 72.59"/><polygon points="157.15 72.59 161.61 72.59 175.47 37.42 170.26 37.42 159.53 66.03 159.43 66.03 149.1 37.42 143.59 37.42 157.15 72.59"/><rect x="196.58" y="37.42" width="4.77" height="35.16"/><path d="M232.05,41.6h6.25a16.94,16.94,0,0,1,2.76.22,7.34,7.34,0,0,1,2.43.82,4.48,4.48,0,0,1,1.72,1.71,6.84,6.84,0,0,1,0,5.82,4.48,4.48,0,0,1-1.72,1.71,7.57,7.57,0,0,1-2.43.82,16.94,16.94,0,0,1-2.76.22h-6.25Zm-4.77,31h4.77V57.09h5.31l8.94,15.5h6l-10-16a9.68,9.68,0,0,0,3.6-1.07,9.86,9.86,0,0,0,2.73-2.14,9.12,9.12,0,0,0,1.71-2.83,9,9,0,0,0,.6-3.25,12.5,12.5,0,0,0-.5-3.4,8,8,0,0,0-1.76-3.19,9.73,9.73,0,0,0-3.45-2.33,14.54,14.54,0,0,0-5.56-.92H227.28Z"/><polygon points="280.97 72.59 285.74 72.59 285.74 41.89 297.06 41.89 297.06 37.42 269.64 37.42 269.64 41.89 280.97 41.89 280.97 72.59"/><path d="M318.37,37.42V59.73a14.3,14.3,0,0,0,1,5.58,13.22,13.22,0,0,0,2.88,4.35,12.76,12.76,0,0,0,4.32,2.83,15,15,0,0,0,10.73,0,12.76,12.76,0,0,0,4.32-2.83,13.37,13.37,0,0,0,2.88-4.35,14.3,14.3,0,0,0,1-5.58V37.42h-4.76V59a13.77,13.77,0,0,1-.45,3.4,9.85,9.85,0,0,1-1.49,3.26,8.22,8.22,0,0,1-2.73,2.43,9.74,9.74,0,0,1-8.35,0,8.22,8.22,0,0,1-2.73-2.43,10.05,10.05,0,0,1-1.49-3.26,13.77,13.77,0,0,1-.45-3.4V37.42Z"/><path d="M374.11,59.72l6.66-16.14h.09l6.56,16.14ZM363.38,72.59h5.56l3.48-8.69h16.74l3.53,8.69h5.56L383.2,37.42h-4.32Z"/><polygon points="419.7 72.59 440.61 72.59 440.61 68.12 424.47 68.12 424.47 37.42 419.7 37.42 419.7 72.59"/><polygon points="462.67 72.59 465.94 72.59 465.94 55.9 482.48 55.9 482.48 52.92 465.94 52.92 465.94 40.41 483.73 40.41 483.73 37.42 462.67 37.42 462.67 72.59"/><path d="M509.2,48.9a14.6,14.6,0,0,1,3-4.92,13.82,13.82,0,0,1,4.69-3.28,16.64,16.64,0,0,1,12.36,0,13.86,13.86,0,0,1,4.7,3.28,14.58,14.58,0,0,1,3,4.92,18.44,18.44,0,0,1,0,12.21,14.58,14.58,0,0,1-3,4.92,13.72,13.72,0,0,1-4.7,3.28,16.64,16.64,0,0,1-12.36,0A13.68,13.68,0,0,1,512.19,66a14.6,14.6,0,0,1-3-4.92,18.44,18.44,0,0,1,0-12.21m-3,13.53A17.46,17.46,0,0,0,510,68.29a16.72,16.72,0,0,0,5.74,3.83,20.68,20.68,0,0,0,14.75,0,16.77,16.77,0,0,0,5.73-3.83,17.49,17.49,0,0,0,3.73-5.86,21.19,21.19,0,0,0,0-14.83,17.55,17.55,0,0,0-3.73-5.83,17,17,0,0,0-5.73-3.85,20.26,20.26,0,0,0-14.75,0A16.91,16.91,0,0,0,510,41.77a17.53,17.53,0,0,0-3.72,5.83,21,21,0,0,0,0,14.83"/><path d="M565.48,72.59h3.27V55.9h6.12l9.88,16.69h3.72L578.24,55.7a18.64,18.64,0,0,0,3-.69,9.41,9.41,0,0,0,2.91-1.52,8.06,8.06,0,0,0,2.18-2.65,8.9,8.9,0,0,0,.87-4.18,9,9,0,0,0-.74-3.87,8.26,8.26,0,0,0-1.89-2.63,8,8,0,0,0-2.58-1.6,16.73,16.73,0,0,0-2.83-.79,21.72,21.72,0,0,0-2.59-.3c-.79,0-1.42,0-1.89,0h-9.23Zm3.27-32.18h7a11.43,11.43,0,0,1,4.19.64,7,7,0,0,1,2.52,1.59,5.14,5.14,0,0,1,1.21,2,6.32,6.32,0,0,1,0,4,5.14,5.14,0,0,1-1.21,2,7.13,7.13,0,0,1-2.52,1.58,11.41,11.41,0,0,1-4.19.65h-7Z"/><path d="M640.82,53.62H629.1v3h8.44V68.42A13.79,13.79,0,0,1,633,70.06a30.67,30.67,0,0,1-5.31.44,15.51,15.51,0,0,1-6.18-1.19A13.55,13.55,0,0,1,616.84,66a14.45,14.45,0,0,1-3-4.92,18.44,18.44,0,0,1,0-12.21,14.45,14.45,0,0,1,3-4.92,13.82,13.82,0,0,1,4.69-3.28,15.51,15.51,0,0,1,6.18-1.19,14.13,14.13,0,0,1,2.93.32,16.71,16.71,0,0,1,2.86.9A13.17,13.17,0,0,1,636,42.12a9.92,9.92,0,0,1,2,1.76l2.39-2.48q-4.83-4.86-12.67-4.87a19.25,19.25,0,0,0-7.38,1.39,17,17,0,0,0-5.73,3.85,17.76,17.76,0,0,0-3.73,5.84,21.16,21.16,0,0,0,0,14.82,17.64,17.64,0,0,0,3.73,5.86,16.46,16.46,0,0,0,5.73,3.82,19.24,19.24,0,0,0,7.38,1.37,31.46,31.46,0,0,0,6.73-.72,22.76,22.76,0,0,0,6.38-2.46Z"/><polygon points="667.35 72.59 689.65 72.59 689.65 69.61 670.62 69.61 670.62 55.9 687.71 55.9 687.71 52.92 670.62 52.92 670.62 40.41 688.85 40.41 688.85 37.42 667.35 37.42 667.35 72.59"/><path d="M704.84,31V27.33h2a1.68,1.68,0,0,1,1.81,1.81A1.72,1.72,0,0,1,706.84,31Zm-1,4.87h1v-4h2l2,4h1.16l-1.88-3.63a4.38,4.38,0,0,0-.3-.53v0a2.46,2.46,0,0,0,1.82-2.53A2.62,2.62,0,0,0,707,26.38H703.8Zm-4.54-4.75a7.35,7.35,0,1,1,14.69,0,7.35,7.35,0,1,1-14.69,0m-1.08,0a8.42,8.42,0,1,0,8.37-8.6,8.45,8.45,0,0,0-8.37,8.6"/><rect x="745.94" width="1.91" height="88.97"/><path d="M791.56,39.89c0-1.66-1.48-2.48-4.45-2.48q-.15,0-.15-.21l.13-.63a.24.24,0,0,1,.26-.21H801c.1,0,.16.07.16.21l-.13.63c0,.14-.24.21-.62.21a8.66,8.66,0,0,0-1.33.11,3.47,3.47,0,0,0-1.38.51,4.54,4.54,0,0,0-1.78,3.12L790,69.07a4.36,4.36,0,0,0-.1,1,1.51,1.51,0,0,0,.47,1.1,2.63,2.63,0,0,0,1.2.68,11.61,11.61,0,0,0,3.2.32c.1,0,.15.07.15.2l-.13.63c0,.14-.13.21-.23.21h-14q-.18,0-.18-.21l.13-.63c.07-.13.28-.2.64-.2a8.68,8.68,0,0,0,1.31-.12,3.48,3.48,0,0,0,1.37-.51,4.5,4.5,0,0,0,1.78-3.12l2-9.29c.56-2.66,1.06-5,1.49-7s.79-3.64,1.07-5l.72-3.36q.29-1.34.45-2.07c.1-.48.17-.86.21-1.12A4.71,4.71,0,0,0,791.56,39.89Z"/><path d="M808.33,49.7c.63,0,.94.59.94,1.76a6.09,6.09,0,0,1-.09,1.2c-.06.28-.14.65-.23,1.12s-.24,1.18-.43,2.11-.47,2.26-.82,4c0,.19.08.29.23.29a.6.6,0,0,0,.42-.23l.61-.69,1.29-1.47c.59-.68,1.22-1.37,1.89-2.1s1.37-1.44,2.09-2.16,1.45-1.36,2.16-1.93a7.27,7.27,0,0,1,4-1.89,2.06,2.06,0,0,1,2,1.91,4.32,4.32,0,0,1-.08,1l-4.65,18.11v.1c0,.39.21.58.65.58q1.05,0,3.69-2.77l.42-.42.5.5a12.37,12.37,0,0,1-3,3Q817.15,74,815.74,74a1.8,1.8,0,0,1-1.37-.61,1.84,1.84,0,0,1-.6-1.28,5.47,5.47,0,0,1,.08-1L818.51,53v-.11a.49.49,0,0,0-.22-.4.83.83,0,0,0-.58-.16,2.85,2.85,0,0,0-1.18.63,20.29,20.29,0,0,0-1.81,1.58c-.66.65-1.36,1.36-2.08,2.15s-1.42,1.56-2.08,2.33q-2.73,3.14-3.18,3.83a4.19,4.19,0,0,0-.62,1.45L804.88,73A6.29,6.29,0,0,1,802.1,74c-.64,0-1-.25-1-.76a3.87,3.87,0,0,1,.13-.89c.15-.7.25-1.14.29-1.33l3.5-16.59v-.11c0-.48-.2-.73-.6-.73s-.7.31-1.31.93L800.74,57l-.62-.66c.38-.78,1.78-2.19,4.18-4.21C806.22,50.5,807.57,49.7,808.33,49.7Z"/><path d="M829.24,74c-1.55,0-2.33-.71-2.33-2.12A3.8,3.8,0,0,1,827,71l4-19a2,2,0,0,0,.06-.42.35.35,0,0,0-.4-.39h-1.17c-.46,0-.68-.16-.68-.47s.12-.55.38-.63a5.27,5.27,0,0,1,.64-.19,4.23,4.23,0,0,0,.64-.19,4.52,4.52,0,0,0,1-.63,12.81,12.81,0,0,0,1.28-1.13c.42-.42.84-.87,1.26-1.34s.81-.94,1.18-1.39c.94-1.13,1.53-1.81,1.75-2a2.18,2.18,0,0,1,.92.42c-.14.36-.32.79-.55,1.28s-.45,1-.65,1.49a12.47,12.47,0,0,0-1,2.72v.11q0,.57.63.57h3.4l-.28,1.42h-3.8c-.47,0-.76.3-.89.91l-3.64,17c-.08.37-.14.66-.18.88s-.07.38-.09.51a1.16,1.16,0,0,0,0,.26v.1c0,.4.19.6.58.6a3.4,3.4,0,0,0,2.22-1.23l2.9-2.9.37.39q-.36,1.13-3,3.51C832,73,830.42,74,829.24,74Z"/><path d="M849.78,71.84a12.28,12.28,0,0,0,6.07-2.2l.36.66A19.6,19.6,0,0,1,850,73.49a10.6,10.6,0,0,1-3.1.47,5,5,0,0,1-2.68-.67,5.34,5.34,0,0,1-1.81-1.79A10.55,10.55,0,0,1,841.09,66a21,21,0,0,1,4.19-10.75,13.86,13.86,0,0,1,6-4.76,8.57,8.57,0,0,1,3.21-.74,7.84,7.84,0,0,1,2.21.25,4.06,4.06,0,0,1,1.39.75,3.32,3.32,0,0,1,1.33,2.71,5.47,5.47,0,0,1-.69,2.81,7.19,7.19,0,0,1-1.82,2,12.29,12.29,0,0,1-2.57,1.49,29.36,29.36,0,0,1-2.91,1.1c-1,.31-2,.6-2.91.85s-1.78.51-2.5.77a10.25,10.25,0,0,0-.83,4q0,3.66,2.48,4.91A4.74,4.74,0,0,0,849.78,71.84ZM846.35,60.9c0,.3.24.45.71.45A20.21,20.21,0,0,0,852.71,59a9.94,9.94,0,0,0,2.58-2.49,5.54,5.54,0,0,0,.87-3.14A2.45,2.45,0,0,0,855,50.93a2.77,2.77,0,0,0-1.24-.21,4.06,4.06,0,0,0-1.82.51,6.71,6.71,0,0,0-1.75,1.36,10.81,10.81,0,0,0-1.42,1.93,18,18,0,0,0-1.09,2.2A27,27,0,0,0,846.35,60.9Z"/><path d="M876.21,53.92l-1.29-.21a4.89,4.89,0,0,0-3.29,1.64,10.18,10.18,0,0,0-2.88,4.87c-.18.77-.35,1.55-.53,2.33L866,73l-.71.32-.86.34a5.2,5.2,0,0,1-1.59.39c-.45,0-.68-.29-.68-.86a24.68,24.68,0,0,1,.55-3q.54-2.56,1.2-5.64T865,59.44c.29-1.33.5-2.35.65-3.08s.27-1.25.35-1.58a7.12,7.12,0,0,0,.14-.73c0-.3-.11-.45-.32-.45a1.48,1.48,0,0,0-1,.53l-2.19,2.14a.36.36,0,0,1-.24.13c-.38,0-.57-.18-.57-.55s.4-.89,1.2-1.63,1.45-1.34,1.95-1.77l1.12-1,.73-.63a8,8,0,0,1,.75-.55,3.25,3.25,0,0,1,1.55-.6c.57.08.86.69.86,1.83L869.59,55c0,.37.12.55.36.55s.48-.36,1-1.09.95-1.26,1.26-1.62l.95-1.11a7.9,7.9,0,0,1,1.07-1,4.17,4.17,0,0,1,2.62-1.07c.5,0,.84.4,1,1.23a2.46,2.46,0,0,1,.08.65C877.93,53.09,877.36,53.88,876.21,53.92Z"/><path d="M887.72,49.7c.63,0,.94.59.94,1.76a6.09,6.09,0,0,1-.09,1.2l-.24,1.12c-.09.48-.24,1.18-.43,2.11l-.81,4c0,.19.07.29.22.29a.56.56,0,0,0,.42-.23l.62-.69,1.29-1.47c.59-.68,1.21-1.37,1.88-2.1s1.38-1.44,2.1-2.16a26.79,26.79,0,0,1,2.16-1.93c1.62-1.26,3-1.89,4-1.89a1.84,1.84,0,0,1,1.37.62,1.87,1.87,0,0,1,.59,1.29,5,5,0,0,1-.08,1L897,70.74v.1c0,.39.22.58.66.58q1,0,3.69-2.77l.42-.42.49.5a12.27,12.27,0,0,1-2.95,3Q896.54,74,895.12,74a2.06,2.06,0,0,1-2-1.89,5.47,5.47,0,0,1,.08-1L897.9,53v-.11a.51.51,0,0,0-.22-.4.85.85,0,0,0-.58-.16,2.73,2.73,0,0,0-1.18.63,19,19,0,0,0-1.82,1.58c-.66.65-1.35,1.36-2.08,2.15S890.6,58.2,889.94,59q-2.72,3.14-3.18,3.83a4.16,4.16,0,0,0-.61,1.45L884.26,73A6.22,6.22,0,0,1,881.49,74c-.65,0-1-.25-1-.76a4.52,4.52,0,0,1,.13-.89c.16-.7.26-1.14.29-1.33l3.51-16.59v-.11c0-.48-.2-.73-.6-.73s-.7.31-1.31.93S881.12,56,880.13,57l-.63-.66c.39-.78,1.78-2.19,4.19-4.21Q886.57,49.7,887.72,49.7Z"/><path d="M917.76,69.29c.07-.33.13-.63.21-.92a5.07,5.07,0,0,0,.13-.87c0-.3-.05-.45-.19-.45s-.62.29-1.28.88l-1.83,1.61c-.56.49-1.15,1-1.77,1.51s-1.22,1-1.82,1.42a6.19,6.19,0,0,1-3,1.49,1.81,1.81,0,0,1-1.53-.79,5.61,5.61,0,0,1-.91-1.85,13.25,13.25,0,0,1-.52-3.54,16.18,16.18,0,0,1,4.14-10.44,21.47,21.47,0,0,1,9.7-6.67,17.89,17.89,0,0,1,5.81-1c.3,0,.45.25.45.74l-3.95,18.1-.06.42a5.76,5.76,0,0,0,0,.7,1.16,1.16,0,0,0,.21.64.59.59,0,0,0,.46.31,1.17,1.17,0,0,0,.63-.3c.25-.2.51-.43.77-.67.73-.63,1.18-.94,1.36-.94s.42.16.42.47-.94,1.22-2.83,2.67-3.09,2.22-3.58,2.22-.92-.36-1.13-1.07a5.06,5.06,0,0,1-.16-1.29,10.68,10.68,0,0,1,.08-1.33C917.63,70,917.69,69.61,917.76,69.29Zm3.42-16.19c0-.28-.33-.41-1-.41a9.08,9.08,0,0,0-2.33.35,11.43,11.43,0,0,0-8.37,9.07,24.21,24.21,0,0,0-.62,4c0,1,0,1.72,0,2.19a5.22,5.22,0,0,0,.26,1.34,2,2,0,0,0,1.94,1.46,19.55,19.55,0,0,0,4.06-2.93L918.59,65Z"/><path d="M932.64,74c-1.55,0-2.32-.71-2.32-2.12a3.8,3.8,0,0,1,.1-.89l4-19a2.73,2.73,0,0,0,0-.42.34.34,0,0,0-.39-.39h-1.18c-.45,0-.68-.16-.68-.47a.58.58,0,0,1,.38-.63,5.85,5.85,0,0,1,.64-.19,3.92,3.92,0,0,0,.64-.19,4.53,4.53,0,0,0,1-.63,12.75,12.75,0,0,0,1.27-1.13c.43-.42.85-.87,1.27-1.34s.81-.94,1.18-1.39c.94-1.13,1.52-1.81,1.75-2a2.14,2.14,0,0,1,.91.42c-.13.36-.32.79-.54,1.28s-.45,1-.66,1.49a12.86,12.86,0,0,0-.94,2.72v.11q0,.57.63.57h3.4l-.29,1.42h-3.79c-.47,0-.77.3-.89.91l-3.64,17c-.09.37-.15.66-.18.88s-.07.38-.09.51a1.16,1.16,0,0,0,0,.26v.1q0,.6.57.6a3.42,3.42,0,0,0,2.23-1.23l2.9-2.9.37.39c-.25.75-1.23,1.92-3,3.51C935.41,73,933.83,74,932.64,74Z"/><path d="M954,52l-3.9,18.83c0,.39.21.58.63.58q1.05,0,3.69-2.77l.42-.42.5.5a8.33,8.33,0,0,1-2.1,2.27,29.93,29.93,0,0,1-2.38,1.83A5.38,5.38,0,0,1,948.23,74a1.67,1.67,0,0,1-1.48-.72,2.27,2.27,0,0,1-.5-1.24,6.11,6.11,0,0,1,.13-1.29L950.15,53v-.11q0-.57-.66-.57c-.75,0-1.89.82-3.42,2.48-.32.35-.54.59-.68.71l-.5-.5a12.34,12.34,0,0,1,3-3c1.86-1.5,3.19-2.25,4-2.25a1.92,1.92,0,0,1,1.69.72A2.69,2.69,0,0,1,954,52ZM953,42.86a2.42,2.42,0,0,1-.42-.81,3.13,3.13,0,0,1-.09-.77,6.55,6.55,0,0,1,.17-1.21,7.26,7.26,0,0,1,.51-1.51c.53-1.15,1.21-1.73,2.07-1.73a1.53,1.53,0,0,1,1.54,1.31,2.77,2.77,0,0,1,.11.78,4.81,4.81,0,0,1-.21,1.18,7.78,7.78,0,0,1-.58,1.49c-.63,1.15-1.32,1.73-2.09,1.73A1.16,1.16,0,0,1,953,42.86Z"/><path d="M975.84,49.7c1,0,2,.91,3,2.72a12.13,12.13,0,0,1,1.49,5.67,15.4,15.4,0,0,1-.65,4.79,15.59,15.59,0,0,1-1.77,3.62,16.2,16.2,0,0,1-2.63,3A18.24,18.24,0,0,1,972,71.89,14.19,14.19,0,0,1,964.85,74c-.94,0-1.9-.92-2.87-2.75A11.27,11.27,0,0,1,960.51,66a15.32,15.32,0,0,1,.64-4.51,16.39,16.39,0,0,1,1.76-3.9,17.38,17.38,0,0,1,5.79-5.74A13.82,13.82,0,0,1,975.84,49.7Zm-10.42,9.7a20,20,0,0,0-.73,3.19,18.46,18.46,0,0,0-.25,2.79,12.78,12.78,0,0,0,.2,2.24,8.81,8.81,0,0,0,.68,2.07c.76,1.55,1.78,2.33,3.09,2.33q3.57,0,5.89-4.55a19.21,19.21,0,0,0,2.07-8.87,10.08,10.08,0,0,0-1.44-5.5,2.7,2.7,0,0,0-2.25-1.46,4.83,4.83,0,0,0-2.42.63,7.6,7.6,0,0,0-2,1.68,13,13,0,0,0-1.62,2.48A18.44,18.44,0,0,0,965.42,59.4Z"/><path d="M992.48,49.7c.63,0,.95.59.95,1.76a6.09,6.09,0,0,1-.09,1.2c-.07.28-.15.65-.24,1.12s-.24,1.18-.43,2.11-.47,2.26-.81,4c0,.19.07.29.22.29a.58.58,0,0,0,.42-.23l.61-.69,1.3-1.47c.58-.68,1.21-1.37,1.88-2.1s1.37-1.44,2.09-2.16,1.45-1.36,2.16-1.93c1.63-1.26,3-1.89,4-1.89a2.08,2.08,0,0,1,2,1.91,5,5,0,0,1-.08,1l-4.66,18.11v.1c0,.39.22.58.65.58q1,0,3.69-2.77l.42-.42.5.5a12.37,12.37,0,0,1-3,3c-1.86,1.5-3.27,2.25-4.21,2.25a2.06,2.06,0,0,1-2-1.89,4.75,4.75,0,0,1,.08-1l4.65-18.1v-.11a.49.49,0,0,0-.22-.4.82.82,0,0,0-.57-.16,2.73,2.73,0,0,0-1.18.63,19,19,0,0,0-1.82,1.58c-.66.65-1.36,1.36-2.08,2.15s-1.42,1.56-2.08,2.33c-1.81,2.09-2.88,3.37-3.18,3.83a4.19,4.19,0,0,0-.62,1.45L989,73A6.26,6.26,0,0,1,986.26,74c-.65,0-1-.25-1-.76a3.87,3.87,0,0,1,.13-.89c.16-.7.25-1.14.29-1.33l3.5-16.59v-.11c0-.48-.2-.73-.6-.73s-.7.31-1.31.93L984.9,57l-.63-.66c.38-.78,1.78-2.19,4.19-4.21C990.37,50.5,991.72,49.7,992.48,49.7Z"/><path d="M1022.52,69.29c.07-.33.14-.63.21-.92a5.07,5.07,0,0,0,.13-.87q0-.45-.18-.45c-.19,0-.62.29-1.28.88l-1.83,1.61c-.56.49-1.15,1-1.77,1.51s-1.22,1-1.82,1.42a6.21,6.21,0,0,1-3,1.49,1.79,1.79,0,0,1-1.52-.79,5.61,5.61,0,0,1-.91-1.85,12.86,12.86,0,0,1-.52-3.54,16.22,16.22,0,0,1,4.13-10.44,21.55,21.55,0,0,1,9.71-6.67,17.84,17.84,0,0,1,5.81-1c.29,0,.44.25.44.74l-4,18.1c0,.14,0,.28,0,.42a5.76,5.76,0,0,0-.05.7,1.16,1.16,0,0,0,.21.64.57.57,0,0,0,.46.31,1.11,1.11,0,0,0,.62-.3c.25-.2.51-.43.77-.67a4.08,4.08,0,0,1,1.36-.94c.29,0,.42.16.42.47s-.94,1.22-2.82,2.67-3.1,2.22-3.59,2.22-.91-.36-1.12-1.07a4.65,4.65,0,0,1-.16-1.29,10.68,10.68,0,0,1,.08-1.33Q1022.42,69.77,1022.52,69.29ZM1026,53.1c0-.28-.33-.41-1-.41a9,9,0,0,0-2.33.35,11.54,11.54,0,0,0-2.57,1,11.41,11.41,0,0,0-5.81,8.06,24,24,0,0,0-.61,4,20,20,0,0,0,0,2.19,5.22,5.22,0,0,0,.26,1.34,1.94,1.94,0,0,0,1.93,1.46,19.33,19.33,0,0,0,4.07-2.93l3.47-3.11Z"/><path d="M1038.75,70.82c0,.38.21.57.65.57q1,0,3.69-2.77l.42-.42.49.5a12.24,12.24,0,0,1-3,3c-1.87,1.5-3.27,2.25-4.22,2.25a1.84,1.84,0,0,1-1.37-.62,1.87,1.87,0,0,1-.59-1.28,5.27,5.27,0,0,1,.08-1l7.69-35.9a3,3,0,0,0,.11-.68c0-.44-.19-.66-.58-.66a3.38,3.38,0,0,0-1.32.4l-1.76.83-.34-.81c4.91-2.67,7.55-4,7.88-4s.51.21.51.61a37.61,37.61,0,0,1-.82,4.4q-.83,3.78-2,9.25t-2,9.52c-.58,2.71-1.08,5-1.48,6.89s-.73,3.44-1,4.68-.47,2.2-.62,2.89-.25,1.2-.31,1.53-.11.58-.14.73Z"/></g></g></svg>