<?xml version="1.0" encoding="iso-8859-1"?>
<!-- Generator: Adobe Illustrator 19.0.0, SVG Export Plug-In . SVG Version: 6.00 Build 0)  -->
<svg version="1.1" id="Capa_1" xmlns="http://www.w3.org/2000/svg" xmlns:xlink="http://www.w3.org/1999/xlink" x="0px" y="0px"
	 viewBox="0 0 480.014 480.014" style="enable-background:new 0 0 480.014 480.014;" xml:space="preserve">
<g>
	<g>
		<path d="M431.87,193.826c-15.403,0.258-27.828,12.682-28.086,28.086v12.496c0.018,15.575,12.649,28.192,28.224,28.192h0.736
			c15.552-0.035,28.146-12.64,28.168-28.192v-12.496C460.648,206.136,447.645,193.561,431.87,193.826z M444.912,234.407
			c-0.009,6.734-5.466,12.191-12.2,12.2h-0.704c-6.742,0.009-12.215-5.45-12.224-12.192c0-0.003,0-0.005,0-0.008v-12.496
			c0.095-6.839,5.716-12.306,12.555-12.211c0.124,0.002,0.249,0.005,0.373,0.011c6.734,0.009,12.191,5.466,12.2,12.2V234.407z"/>
	</g>
</g>
<g>
	<g>
		<path d="M479.44,469.031l-22.456-56.12c-0.497-1.261-0.874-2.565-1.128-3.896l-9.528-52.4h3.648c4.418,0,8-3.582,8-8v-59.08
			c-0.103-13.832-11.249-25.042-25.08-25.224l-51.2-5.6l-29.688-29.656v-53.048c0-4.418-3.582-8-8-8h-35.2
			c-4.418,0.001-7.999,3.583-7.999,8.001c0,2.555,1.222,4.957,3.287,6.463c1.971,1.409,3.142,3.681,3.144,6.104
			c0,4.197-3.403,7.6-7.6,7.6c-4.197,0-7.6-3.403-7.6-7.6c-0.003-2.422,1.169-4.694,3.144-6.096c3.574-2.597,4.367-7.6,1.77-11.174
			c-1.501-2.065-3.897-3.29-6.45-3.298h-34.496c-4.418,0-8,3.582-8,8v16.704c-0.797-0.082-1.598-0.125-2.4-0.128
			c-4.878,0.003-9.633,1.531-13.6,4.368v-20.944c0-4.418-3.582-8-8-8h-20.104c0-0.48,0.048-0.968,0.048-1.448
			c0.03-13.021-10.501-23.6-23.521-23.631s-23.6,10.501-23.631,23.521c-0.001,0.519,0.015,1.039,0.048,1.557h-20.84
			c-4.418,0-8,3.582-8,8v53.048l-30.2,30.2l-34.6,10.28c-4.552-3.454-10.11-5.32-15.824-5.312
			c-13.973,0.018-25.298,11.339-25.32,25.312v59.08c0,4.418,3.582,8,8,8h3.64l-9.52,52.384c-0.251,1.338-0.631,2.648-1.136,3.912
			l-22.472,56.12c-1.644,4.101,0.349,8.758,4.45,10.402c0.948,0.38,1.961,0.575,2.982,0.574h23.504v-16H19.824l18.048-45.144
			c0.911-2.252,1.587-4.593,2.016-6.984l7.32-40.064l11.448,42.112l-5.728,57.28c-0.442,4.396,2.764,8.318,7.16,8.76
			c0.266,0.027,0.533,0.04,0.8,0.04H84.4v-16H69.728l5-49.96c0.097-0.975,0.016-1.959-0.24-2.904l-14.872-54.528h5.68
			c4.418,0,8-3.582,8-8v-44.28l46.768-0.328c2.844-0.014,5.466-1.537,6.888-4l16-28h81.056c4.418,0,8-3.582,8-8v-28.624
			c3.968,2.837,8.722,4.365,13.6,4.368c0.801,0,1.602-0.04,2.4-0.12v24.376c0,4.418,3.582,8,8,8h84.8l20.712,29.136
			c1.5,2.112,3.93,3.367,6.52,3.368h38.712v44.104c0,4.418,3.582,8,8,8h5.68l-14.904,54.528c-0.255,0.945-0.337,1.929-0.24,2.904
			l5,49.96h-14.672v16h23.512c4.418,0,8-3.582,8-8c0-0.267-0.013-0.534-0.04-0.8l-5.728-57.28l11.448-42.112l7.288,40.088
			c0.432,2.379,1.105,4.709,2.008,6.952l18.088,45.152h-11.68v16h23.496c4.418,0.003,8.003-3.576,8.006-7.994
			C480.015,470.992,479.82,469.979,479.44,469.031z M57.296,340.615H38.04v-51.08c0.086-5.235,4.399-9.409,9.634-9.323
			c0.111,0.002,0.223,0.006,0.334,0.011c4.677,0.038,8.585,3.574,9.088,8.224l-9.12,0.064l0.112,16l9.232-0.064L57.296,340.615z
			 M115.344,288.007l-42.168,0.296c-0.075-1.643-0.31-3.275-0.704-4.872l31.824-9.448c1.276-0.364,2.44-1.043,3.384-1.976
			l20.328-20.328v12.328c0.049,0.469,0.142,0.933,0.28,1.384L115.344,288.007z M216.008,256.007H152.08l4.568-8h19.36v-16h-24
			c-2.864-0.006-5.512,1.52-6.944,4l-1.056,1.88v-53.88h24.048c4.418,0,8-3.581,8-8c0-1.759-0.579-3.468-1.648-4.865
			c-1.448-1.825-1.957-4.224-1.376-6.48c0.747-2.792,2.992-4.932,5.816-5.544c2.253-0.472,4.598,0.118,6.36,1.6
			c3.15,2.577,3.658,7.2,1.144,10.4c-2.7,3.498-2.053,8.521,1.445,11.221c1.401,1.081,3.121,1.668,4.891,1.667h23.32v8.704
			c-0.797-0.082-1.598-0.125-2.4-0.128c-13.034,0-23.6,10.566-23.6,23.6c0,13.034,10.566,23.6,23.6,23.6
			c0.801,0,1.602-0.04,2.4-0.12V256.007z M222.408,219.983c-1.393,0.248-2.693,0.864-3.768,1.784
			c-1.371,1.266-3.166,1.974-5.032,1.984c-4.188,0.045-7.62-3.313-7.665-7.502c-0.045-4.188,3.313-7.62,7.502-7.665
			c1.921-0.021,3.777,0.688,5.196,1.983c1.074,0.922,2.375,1.541,3.768,1.792C221.896,214.875,221.896,217.468,222.408,219.983z
			 M336.008,237.679l-1.6-2.312c-1.503-2.111-3.936-3.364-6.528-3.36h-15.872v16h11.712l5.688,8h-65.4v-28.32
			c0.002-4.418-3.577-8.002-7.996-8.004c-1.985-0.001-3.9,0.736-5.372,2.068c-1.373,1.275-3.174,1.989-5.048,2
			c-4.197,0-7.6-3.403-7.6-7.6s3.403-7.6,7.6-7.6c1.874,0.011,3.675,0.725,5.048,2c3.276,2.965,8.335,2.712,11.3-0.564
			c1.323-1.462,2.06-3.361,2.068-5.332v-20.648h12.504c-2.538,12.775,5.761,25.189,18.537,27.727
			c12.775,2.538,25.189-5.761,27.727-18.537c0.603-3.034,0.603-6.156,0-9.19h13.232V237.679z M406.832,288.511h-34.696
			l-20.128-28.32v-8.512l20.328,20.328c1.291,1.291,2.985,2.101,4.8,2.296l32.584,3.544
			C407.975,281.142,406.988,284.786,406.832,288.511z M441.976,340.615H422.72v-36.104h9.288v-16h-9.08
			c0.595-4.871,4.824-8.474,9.728-8.288c5.144,0,9.316,4.168,9.32,9.312V340.615z"/>
	</g>
</g>
<g>
	<g>
		<path d="M47.654,193.707c-0.117,0.001-0.233,0.002-0.35,0.004c-15.567,0.018-28.182,12.633-28.2,28.2v12.496
			c0.018,15.567,12.633,28.182,28.2,28.2h0.704c15.578,0,28.211-12.622,28.224-28.2v-12.496
			C76.129,206.231,63.334,193.604,47.654,193.707z M48.008,246.599C48.008,246.599,48.008,246.599,48.008,246.599h-0.704
			c-6.731-0.009-12.187-5.461-12.2-12.192v-12.496c0.1-6.843,5.729-12.309,12.572-12.209c0.111,0.002,0.221,0.005,0.332,0.009
			c6.733,0.009,12.188,5.467,12.192,12.2l0.032,12.496C60.223,241.149,54.751,246.608,48.008,246.599z"/>
	</g>
</g>
<g>
	<g>
		<rect x="40.008" y="160.007" width="16" height="16"/>
	</g>
</g>
<g>
	<g>
		<rect x="40.008" y="128.007" width="16" height="16"/>
	</g>
</g>
<g>
	<g>
		<rect x="40.008" y="96.007" width="16" height="16"/>
	</g>
</g>
<g>
	<g>
		<rect x="40.008" y="64.007" width="16" height="16"/>
	</g>
</g>
<g>
	<g>
		<rect x="40.008" y="32.007" width="16" height="16"/>
	</g>
</g>
<g>
	<g>
		<rect x="40.008" y="0.007" width="16" height="16"/>
	</g>
</g>
<g>
	<g>
		<rect x="72.008" y="0.007" width="16" height="16"/>
	</g>
</g>
<g>
	<g>
		<rect x="104.008" y="0.007" width="16" height="16"/>
	</g>
</g>
<g>
	<g>
		<rect x="136.008" y="0.007" width="16" height="16"/>
	</g>
</g>
<g>
	<g>
		<rect x="168.008" y="0.007" width="16" height="16"/>
	</g>
</g>
<g>
	<g>
		<rect x="200.008" y="0.007" width="16" height="16"/>
	</g>
</g>
<g>
	<g>
		<rect x="232.008" y="0.007" width="16" height="16"/>
	</g>
</g>
<g>
	<g>
		<rect x="264.008" y="0.007" width="16" height="16"/>
	</g>
</g>
<g>
	<g>
		<rect x="296.008" y="0.007" width="16" height="16"/>
	</g>
</g>
<g>
	<g>
		<rect x="328.008" y="0.007" width="16" height="16"/>
	</g>
</g>
<g>
	<g>
		<rect x="360.008" y="0.007" width="16" height="16"/>
	</g>
</g>
<g>
	<g>
		<rect x="392.008" y="0.007" width="16" height="16"/>
	</g>
</g>
<g>
	<g>
		<rect x="424.008" y="0.007" width="16" height="16"/>
	</g>
</g>
<g>
	<g>
		<rect x="424.008" y="32.007" width="16" height="16"/>
	</g>
</g>
<g>
	<g>
		<rect x="424.008" y="64.007" width="16" height="16"/>
	</g>
</g>
<g>
	<g>
		<rect x="424.008" y="96.007" width="16" height="16"/>
	</g>
</g>
<g>
	<g>
		<rect x="424.008" y="128.007" width="16" height="16"/>
	</g>
</g>
<g>
	<g>
		<rect x="424.008" y="160.007" width="16" height="16"/>
	</g>
</g>
<g>
</g>
<g>
</g>
<g>
</g>
<g>
</g>
<g>
</g>
<g>
</g>
<g>
</g>
<g>
</g>
<g>
</g>
<g>
</g>
<g>
</g>
<g>
</g>
<g>
</g>
<g>
</g>
<g>
</g>
</svg>
