<svg height="480pt" viewBox="0 0 480 480.03636" width="480pt" xmlns="http://www.w3.org/2000/svg"><path d="m479.753906 97.636719c-.09375-.285157-.203125-.566407-.328125-.839844-.121093-.363281-.269531-.714844-.441406-1.054687-.160156-.261719-.339844-.511719-.535156-.746094-.203125-.316406-.433594-.617188-.6875-.894532-.234375-.222656-.484375-.433593-.742188-.625-.226562-.210937-.460937-.40625-.707031-.59375l-144-91.628906c-2.578125-1.644531-5.871094-1.671875-8.476562-.074218l-144 88.425781c-.28125.195312-.546876.410156-.800782.640625-.25.175781-.484375.371094-.714844.574218-.261718.285157-.5.589844-.710937.910157-.175781.25-.382813.464843-.535156.730469-.199219.386718-.371094.785156-.503907 1.199218-.105468.226563-.199218.460938-.28125.695313-.183593.675781-.28125 1.371093-.277343 2.074219v95.605468h16v-81.269531l128 78.589844v154.679687c0 2.875 1.542969 5.523438 4.039062 6.945313 2.492188 1.421875 5.558594 1.398437 8.03125-.0625l144-85.203125c2.4375-1.433594 3.933594-4.050782 3.9375-6.878906v-159.199219c-.019531-.246094-.054687-.492188-.097656-.738281-.023437-.421876-.078125-.847657-.167969-1.261719zm-151.65625 77.902343-4.046875-2.488281-124.746093-76.597656 128.640624-78.976563 128.800782 81.945313zm135.921875 78.730469-128 75.734375v-140.558594l128-75.746093zm0 0"/><path d="m288.019531 464.035156h-248c-13.257812 0-24-10.742187-24-24 0-13.253906 10.742188-24 24-24h16c4.417969 0 8-3.582031 8-8v-184h176v40c0 4.417969 3.582031 8 8 8h40v88h16v-96c0-.175781-.089843-.328125-.105469-.503906-.039062-.699219-.175781-1.390625-.40625-2.054688-.089843-.257812-.152343-.503906-.265624-.753906-.386719-.871094-.929688-1.664062-1.601563-2.34375l-48-48c-.679687-.667968-1.476563-1.210937-2.351563-1.597656-.230468-.105469-.472656-.167969-.71875-.257812-.691406-.238282-1.40625-.378907-2.136718-.421876-.121094.015626-.253906-.066406-.414063-.066406h-184v-40c0-4.417968-3.582031-8-8-8h-16c-22.082031.027344-39.9765622 17.921875-39.9999998 40v240c.0234376 22.082032 17.9179688 39.976563 39.9999998 40h256c4.417969 0 8-3.582031 8-8v-16h-16zm-32-228.6875 20.6875 20.6875h-20.6875zm-240-19.3125v-16c0-13.253906 10.742188-24 24-24h8v224h-8c-8.660156-.015625-17.085937 2.792969-24 8zm0 0"/><path d="m440.019531 376.035156h-192c-4.417969 0-8 3.582032-8 8v48c0 4.417969 3.582031 8 8 8h192c4.417969 0 8-3.582031 8-8v-48c0-4.417968-3.582031-8-8-8zm-8 48h-176v-32h16v16h16v-16h16v16h16v-16h16v16h16v-16h16v16h16v-16h16v16h16v-16h16zm0 0"/><path d="m224.019531 313.492188c0-.230469-.074219-.449219-.089843-.679688-.027344-.445312-.085938-.886719-.175782-1.320312-.078125-.289063-.214844-.542969-.320312-.800782-.117188-.367187-.269532-.726562-.449219-1.070312-.167969-.277344-.351563-.542969-.550781-.800782-.203125-.292968-.421875-.574218-.65625-.839843-.25-.246094-.515625-.472657-.800782-.679688-.191406-.183593-.394531-.355469-.605468-.511719l-64-41.457031c-2.605469-1.6875-5.953125-1.714843-8.585938-.070312l-64 40c-.253906.160156-.453125.382812-.695312.566406-.265625.191406-.519532.40625-.757813.632813-.269531.285156-.507812.59375-.722656.917968-.1875.222656-.363281.460938-.519531.707032-.203125.394531-.375.800781-.519532 1.222656-.082031.222656-.199218.433594-.265624.671875-.183594.667969-.28125 1.359375-.285157 2.054687v64c0 2.757813 1.417969 5.324219 3.757813 6.785156l64 40 .128906.054688c.0625.042969.113281.097656.175781.128906.402344.207032.824219.378906 1.257813.511719.199218.066406.375.175781.574218.226563 1.359376.382812 2.800782.382812 4.160157 0 .207031-.058594.40625-.167969.617187-.242188.414063-.128906.816406-.289062 1.207032-.480469l.128906-.09375.117187-.058593 64-38.542969c2.398438-1.445313 3.867188-4.035157 3.875-6.832031zm-80 88.144531-48-30v-45.121094l48 30zm8.078125-58.945313-48.984375-30.65625 48.800781-30.511718 48.984376 31.714843-31.710938 19.101563zm55.921875 30.273438-48 28.910156v-45.320312l41.964844-25.269532 6.035156-3.640625zm0 0"/><path d="m240.019531 312.035156h32v16h-32zm0 0"/><path d="m240.019531 344.035156h32v16h-32zm0 0"/><path d="m80.019531 424.035156h16v16h-16zm0 0"/><path d="m80.019531 248.035156h16v16h-16zm0 0"/><path d="m251.78125 81.25 38.398438-23.996094 8.472656 13.558594-38.394532 24zm0 0"/><path d="m302.976562 49.25 12.800782-8 8.476562 13.5625-12.800781 8zm0 0"/><path d="m208.019531 152.035156h16v40h-16zm0 0"/><path d="m208.019531 424.035156h16v16h-16zm0 0"/><path d="m208.019531 248.035156h16v16h-16zm0 0"/></svg>